<svg xmlns="http://www.w3.org/2000/svg" viewBox="0 0 704.99 99.99"><defs><style>.cls-1{fill:#59392a;}.cls-2{fill:#269646;}.cls-3{fill:#8dc63f;}.cls-4{fill:#39b54a;}</style></defs><title>branch</title><g id="Layer_2" data-name="Layer 2"><g id="Layer_1-2" data-name="Layer 1"><path class="cls-1" d="M694.94,25.84H10.11C-9.77,25.84,5.87,0,5.46,0,59.79,2.79,114,4.87,196,6.15,382.88,9.56,544.38,7,683.58,0,713.72,8.61,706.65,17.22,694.94,25.84Z"/><path class="cls-1" d="M617.56,61.26C657.67,61.26,471.09,28,466.41,28c-19.89,0-1.73-13.68-2.15-13.68,5.46,4.51,9.92,8.7,41.18,12.53C557.58,37,590.8,43.68,608.71,47.58,638,52.14,630.1,56.7,617.56,61.26Z"/><path class="cls-2" d="M579.28,50a2.63,2.63,0,0,1,2.39-2s15.7-.42,27,11.11c10.23,10.43,8.1,39.15,8.1,39.15a1.83,1.83,0,0,1-2.13,1.7s-21.42-3.19-31.46-22.47C576.4,64.44,579.28,50,579.28,50Z"/><path class="cls-3" d="M612.88,92.49s-1.93-2.17-4.61-5.57c-1.35-1.7-2.88-3.7-4.49-5.87-.8-1.09-1.64-2.2-2.46-3.36l-2.5-3.5-2.44-3.54c-.81-1.16-1.57-2.34-2.32-3.46-1.49-2.25-2.85-4.38-4-6.22-2.29-3.68-3.67-6.23-3.67-6.23s1.93,2.17,4.61,5.57c1.35,1.7,2.88,3.7,4.49,5.87.8,1.09,1.65,2.2,2.46,3.36l2.5,3.5,2.44,3.54c.81,1.16,1.57,2.34,2.32,3.46,1.49,2.25,2.85,4.38,4,6.22C611.5,89.94,612.88,92.49,612.88,92.49Z"/><path class="cls-4" d="M473.28,97.54a2.47,2.47,0,0,1,.29.06c.13,0,.21.08.21.12s-.09.09-.21.12a.75.75,0,0,1-.57,0c-.13,0-.21-.08-.21-.12s.09-.09.21-.12A2.47,2.47,0,0,1,473.28,97.54Z"/></g></g></svg>